<?xml version="1.0" encoding="UTF-8"?>
<svg id="Layer_2" data-name="Layer 2" xmlns="http://www.w3.org/2000/svg" viewBox="0 0 1.8 1.64">
  <defs>
    <style>
      .cls-1 {
        fill: #fff;
        stroke-width: 0px;
      }
    </style>
  </defs>
  <g id="Layer_1-2" data-name="Layer 1">
    <g>
      <path class="cls-1" d="M.67,0c-.09,0-.18.02-.27.02-.08,0-.15.02-.21.07s-.08.12-.1.19c-.03.1-.05.21-.06.32-.02.2-.03.42-.02.62.01.17.1.29.27.33.22.04.44.06.66.08.19.01.42.03.61-.04.17-.07.24-.24.25-.41,0-.22-.05-.45-.09-.67-.02-.11-.02-.24-.08-.34-.05-.07-.13-.09-.21-.11C1.17.01.92,0,.68,0c-.06,0-.06.1,0,.1.19,0,.37,0,.56.03.07.01.15.02.23.04.1.03.11.12.13.22.03.18.06.35.08.53.03.17.06.4-.08.52-.12.11-.35.09-.5.09-.18,0-.36-.02-.53-.04-.15-.02-.39-.01-.43-.2-.04-.15-.02-.33-.01-.48,0-.19.02-.4.09-.58.04-.1.12-.11.22-.11.08,0,.17-.02.25-.02C.73.1.73,0,.67,0h0Z"/>
      <path class="cls-1" d="M.5.55l.71.04c.06,0,.06-.1,0-.1l-.71-.04c-.06,0-.06.1,0,.1H.5Z"/>
      <path class="cls-1" d="M.53.82c.24,0,.47.03.7.06.03,0,.05-.03.05-.05,0-.03-.02-.05-.05-.05-.23-.03-.47-.05-.7-.06-.06,0-.06.1,0,.1h0Z"/>
      <path class="cls-1" d="M.5,1.18c.24.03.48.05.73.04.06,0,.06-.1,0-.1-.23,0-.47,0-.7-.04-.03,0-.05,0-.06.03,0,.02,0,.06.03.06h0Z"/>
    </g>
  </g>
</svg>