<?xml version="1.0" encoding="UTF-8"?>
<svg id="Layer_2" data-name="Layer 2" xmlns="http://www.w3.org/2000/svg" viewBox="0 0 3.43 4.44">
  <defs>
    <style>
      .cls-1 {
        stroke: blue;
      }

      .cls-1, .cls-2, .cls-3 {
        stroke-miterlimit: 10;
        stroke-width: .2px;
      }

      .cls-1, .cls-3 {
        fill: none;
      }

      .cls-2 {
        fill: #fff;
      }

      .cls-2, .cls-3 {
        stroke: #fff;
      }
    </style>
  </defs>
  <g id="Layer_1-2" data-name="Layer 1">
    <g>
      <path class="cls-3" d="M2.24.61c-.05.25-.21.45-.31.67.12.09.22.23.24.38.1.08.12.25.08.36.06.02.08-.09.19-.11.21-.03.24.18.08.36-.09.1-.23.18-.36.2.08.15.12.34.06.51,0,0,.08.01.12.05.09.08.16.49.06.63-.13.18-.26-.04-.37-.2-.05-.07-.08-.15-.14-.21-.35.08-.72-.13-.81-.14-.13-.01-.22.1-.35,0,0,0-.04-.04-.04-.04-.03-.03-.16-.25-.18-.3-.19-.43.17-.43.37-.11-.03-.15,0-.32.11-.44-.2-.07-.33-.2-.31-.42.01-.13.08-.16.09-.17.01-.02.05-.2.21-.34-.11-.13-.33-.35-.42-.48-.07-.09-.11-.2-.12-.31-.04-.4.29-.34.51-.15.2.18.36.53.4.79h.22c0-.23.1-.69.18-.89.06-.14.03-.21.27-.17.3.05.27.32.23.5Z"/>
      <g>
        <path class="cls-2" d="M1.59,3.09c.4-.01.94.04,1.32.2.54.23.59.58.04.83-.62.28-1.76.28-2.39.03-.3-.12-.66-.4-.3-.71.3-.25.95-.35,1.33-.36Z"/>
        <path class="cls-1" d="M2.34,3.04c.09.08.16.49.06.63-.13.18-.26-.04-.37-.2-.05-.07-.08-.15-.14-.21-.35.08-.72-.13-.81-.14-.13-.01-.22.1-.35,0"/>
      </g>
    </g>
  </g>
</svg>