<?xml version="1.0" encoding="UTF-8"?>
<svg id="Layer_2" data-name="Layer 2" xmlns="http://www.w3.org/2000/svg" viewBox="0 0 3.91 3.67">
  <defs>
    <style>
      .cls-1 {
        fill: #fff;
        stroke-width: 0px;
      }
    </style>
  </defs>
  <g id="Layer_1-2" data-name="Layer 1">
    <g>
      <path class="cls-1" d="M3.49.87c.02-.23-.17-.43-.33-.57C2.99.15,2.78.02,2.55,0c-.21-.01-.43.09-.6.2s-.34.27-.43.47c-.05.12.12.22.17.1.07-.15.18-.28.32-.38s.31-.19.48-.19c.18,0,.35.1.49.21s.32.27.3.46c-.01.13.19.13.2,0h0Z"/>
      <path class="cls-1" d="M1.71.69c-.07-.26-.36-.36-.59-.27-.14.05-.26.14-.37.24-.16.13-.31.27-.45.42C.12,1.29-.09,1.59.04,1.87c.11.22.38.31.58.15.09-.07-.03-.22-.12-.16-.32.24-.31.68-.08.98.18.24.67.62.95.33h-.14c.37.32.91.62,1.42.42.39-.15.68-.57.55-.99l-.15.11c.49.28.8-.34.85-.73.06-.43-.05-.92-.45-1.16-.11-.07-.21.11-.1.17.28.17.38.5.37.81,0,.26-.16.96-.56.73-.07-.04-.17.03-.15.11.11.35-.17.69-.5.77-.41.1-.83-.14-1.13-.4-.04-.04-.1-.04-.14,0-.17.17-.58-.21-.67-.34-.14-.19-.18-.5.04-.66l-.12-.16c-.08.06-.2,0-.24-.07-.06-.1-.03-.22.02-.32.08-.18.23-.32.37-.45.13-.12.26-.25.4-.34s.43-.19.5.05c.03.12.23.07.19-.05h0Z"/>
    </g>
  </g>
</svg>